<svg id="Layer_1" data-name="Layer 1" xmlns="http://www.w3.org/2000/svg" viewBox="0 0 256 256"><defs><style>.cls-1{fill:#fff;}</style></defs><title>bolt_logo</title><path class="cls-1" d="M112.38,54.09l-25,43.28h50Zm0,0"/><path class="cls-1" d="M168.58,50.5H118.65l25,43.23Zm0,0"/><path class="cls-1" d="M199.82,104.59h-50l25,43.23Zm0,0"/><path class="cls-1" d="M137.38,104.59h-50l25,43.23Zm0,0"/><path class="cls-1" d="M81.15,108.18l-25,43.28h50Zm0,0"/><path class="cls-1" d="M143.61,108.18l-25,43.28h49.93Zm0,0"/><path class="cls-1" d="M143.61,0l-25,43.28h49.93Zm0,0"/><path class="cls-1" d="M168.58,158.68H118.65l25,43.23Zm0,0"/><path class="cls-1" d="M112.38,162.26l-25,43.28h50Zm0,0"/><path class="cls-1" d="M137.38,212.77h-50l25,43.23Zm0,0"/></svg>