<svg id="Layer_1" data-name="Layer 1" xmlns="http://www.w3.org/2000/svg" viewBox="0 0 24 24"><title>custom</title><path d="M24,.75A.74.74,0,0,0,23.25,0H16.51a.74.74,0,0,0-.74.76.72.72,0,0,0,.74.74h6v6a.75.75,0,1,0,1.5,0V.76h0Zm0,0"/><path d="M7.51,0H.76A.74.74,0,0,0,0,.75V7.51a.74.74,0,0,0,.76.74.72.72,0,0,0,.74-.74v-6h6A.74.74,0,0,0,8.26.75.74.74,0,0,0,7.51,0Zm0,0"/><path d="M7.49,22.5h-6v-6a.74.74,0,0,0-.75-.75A.74.74,0,0,0,0,16.5v6.74H0A.74.74,0,0,0,.75,24H7.49a.74.74,0,0,0,.74-.76.72.72,0,0,0-.74-.74Zm0,0"/><path d="M23.24,15.77a.72.72,0,0,0-.74.74v6h-6a.75.75,0,1,0,0,1.5h6.75a.74.74,0,0,0,.75-.75V16.51a.74.74,0,0,0-.76-.74Zm0,0"/></svg>