<svg id="Layer_1" data-name="Layer 1" xmlns="http://www.w3.org/2000/svg" viewBox="0 0 32 32"><defs><style>.cls-1{fill:#fff;}</style></defs><title>edit_btn</title><path class="cls-1" d="M22.9,12.87a.59.59,0,0,0-.59.59V24.27a2.07,2.07,0,0,1-2.07,2.07h-13a2.07,2.07,0,0,1-2.07-2.07v-13A2.07,2.07,0,0,1,7.26,9.22h13a.59.59,0,1,0,0-1.18h-13A3.26,3.26,0,0,0,4,11.29v13a3.26,3.26,0,0,0,3.26,3.26h13a3.26,3.26,0,0,0,3.26-3.26V13.46a.59.59,0,0,0-.59-.59Zm0,0"/><path class="cls-1" d="M27.46,5a1.83,1.83,0,0,0-2.59,0L14.73,15.15a1.38,1.38,0,0,0-.21.26l-1.4,3.16a.59.59,0,0,0,.78.78l3.16-1.4a1.37,1.37,0,0,0,.26-.21L27.46,7.6a1.83,1.83,0,0,0,0-2.59Zm-.84,1.75L16.48,16.9h0l-1.65.73L15.57,16h0L25.71,5.85a.66.66,0,0,1,.91,0,.65.65,0,0,1,0,.91Zm0,0"/></svg>