<svg id="Layer_1" data-name="Layer 1" xmlns="http://www.w3.org/2000/svg" viewBox="0 0 24 24"><defs><style>.cls-1{fill-rule:evenodd;}</style></defs><title>playlist</title><path d="M22.95,13.15A3.37,3.37,0,0,0,18.08,13l-1.17,1.17L15.73,13a3.36,3.36,0,0,0-4.87.19,3.56,3.56,0,0,0,0,5l.19.19,5.46,5.44a.56.56,0,0,0,.78,0l5.65-5.63a3.56,3.56,0,0,0,0-5Zm-.78,4.27-.58.58-4.68,4.66-5.26-5.24a2.46,2.46,0,0,1,0-3.49A2.27,2.27,0,0,1,15,13.74l1.95,1.94,1.95-1.94a2.23,2.23,0,0,1,3.31.19,2.46,2.46,0,0,1,0,3.49Zm0,0"/><path class="cls-1" d="M.55,1.1H15.82a.55.55,0,1,0,0-1.09H.55a.55.55,0,1,0,0,1.09Zm9.27,9.82H.55A.55.55,0,1,0,.55,12H9.82a.55.55,0,1,0,0-1.09Zm6-5.45H.55a.55.55,0,1,0,0,1.09H15.82a.55.55,0,1,0,0-1.09ZM8.18,16.37H.55a.55.55,0,1,0,0,1.09H8.18a.55.55,0,1,0,0-1.09Zm0,0"/></svg>