<svg id="Layer_1" data-name="Layer 1" xmlns="http://www.w3.org/2000/svg" viewBox="0 0 32 32"><defs><style>.cls-1{fill:#fff;}</style></defs><title>wave</title><path class="cls-1" d="M4.54,14.58a.54.54,0,0,0-.54.54v1.77a.53.53,0,0,0,1.07,0V15.12a.54.54,0,0,0-.53-.54Zm0,0"/><path class="cls-1" d="M6.62,14.58a.53.53,0,0,0-.53.54v1.77a.54.54,0,0,0,1.07,0V15.12a.54.54,0,0,0-.54-.54Zm0,0"/><path class="cls-1" d="M8.7,13.83a.53.53,0,0,0-.54.53v3.27a.53.53,0,1,0,1.07,0V14.37a.53.53,0,0,0-.53-.53Zm0,0"/><path class="cls-1" d="M10.79,12.95a.53.53,0,0,0-.54.53v5a.54.54,0,0,0,1.07,0v-5a.53.53,0,0,0-.54-.53Zm0,0"/><path class="cls-1" d="M12.87,11.38a.54.54,0,0,0-.54.54v8.16a.54.54,0,1,0,1.07,0V11.92a.54.54,0,0,0-.53-.54Zm0,0"/><path class="cls-1" d="M15,7.67a.54.54,0,0,0-.54.54V23.79a.54.54,0,0,0,1.07,0V8.21A.54.54,0,0,0,15,7.67Zm0,0"/><path class="cls-1" d="M17,9a.54.54,0,0,0-.53.54V22.46a.53.53,0,0,0,1.07,0V9.54A.54.54,0,0,0,17,9Zm0,0"/><path class="cls-1" d="M19.13,11.65a.54.54,0,0,0-.54.54v7.62a.53.53,0,1,0,1.07,0V12.19a.53.53,0,0,0-.53-.54Zm0,0"/><path class="cls-1" d="M21.21,13.25a.53.53,0,0,0-.53.53v4.42a.53.53,0,0,0,1.07,0V13.79a.53.53,0,0,0-.54-.53Zm0,0"/><path class="cls-1" d="M23.3,13.93a.54.54,0,0,0-.54.54v3.06a.54.54,0,0,0,1.07,0V14.47a.54.54,0,0,0-.54-.54Zm0,0"/><path class="cls-1" d="M25.38,14.58a.53.53,0,0,0-.53.54v1.77a.53.53,0,0,0,1.07,0V15.12a.54.54,0,0,0-.54-.54Zm0,0"/><path class="cls-1" d="M27.47,14.58a.54.54,0,0,0-.54.54v1.77a.53.53,0,0,0,1.07,0V15.12a.54.54,0,0,0-.53-.54Zm0,0"/></svg>